<?xml version="1.0" standalone="no"?>
<!DOCTYPE svg PUBLIC "-//W3C//DTD SVG 20010904//EN"
 "http://www.w3.org/TR/2001/REC-SVG-20010904/DTD/svg10.dtd">
<svg version="1.0" xmlns="http://www.w3.org/2000/svg"
 width="800.000000pt" height="800.000000pt" viewBox="0 0 800.000000 800.000000"
 preserveAspectRatio="xMidYMid meet">
<metadata>
Created by potrace 1.14, written by Peter Selinger 2001-2017
</metadata>
<g transform="translate(0.000000,800.000000) scale(0.100000,-0.100000)"
fill="#000000" stroke="none">
<path d="M223 7980 c-108 -38 -183 -120 -212 -230 -9 -34 -11 -940 -9 -3775
l3 -3730 22 -47 c31 -67 92 -129 160 -164 l58 -29 3755 0 3755 0 46 22 c63 29
142 107 170 168 l24 50 0 3755 0 3755 -22 47 c-31 67 -96 133 -162 165 l-56
28 -3740 2 c-3643 2 -3741 2 -3792 -17z"/>
</g>
</svg>
