<svg
  xmlns="http://www.w3.org/2000/svg"
  width="200"
  height="62"
  fill="none"
>
  <path
	fill="#fff"
	d="M13.62 61.308H9.08l-.567-14.76h-3.37l-.603 14.76H0L3.405 0h6.81l3.406 61.308ZM6.81 2.271 5.675 29.519l-.532 17.03h3.37L6.81 2.27ZM40.409 26.113h-4.54V11.92c0-.851-.178-1.443-.533-1.774-.354-.331-.745-.497-1.17-.497-.426 0-.816.166-1.17.497-.355.331-.533.923-.533 1.774 0 2.53.118 4.86.355 6.99.236 2.128.544 4.091.922 5.89a51.246 51.246 0 0 0 1.277 4.93 78.085 78.085 0 0 0 1.419 4.045c.378.97.792 2.094 1.241 3.37.473 1.278.91 2.804 1.313 4.578.402 1.774.733 3.843.993 6.209.284 2.365.426 5.12.426 8.266 0 .994-.178 1.857-.532 2.59a5.235 5.235 0 0 1-1.42 1.774 5.98 5.98 0 0 1-2.021.994c-.733.212-1.49.319-2.27.319s-1.55-.106-2.306-.32a6.028 6.028 0 0 1-1.986-.993 5.235 5.235 0 0 1-1.42-1.774c-.354-.733-.531-1.596-.531-2.59V42.008h4.54v14.191c0 .852.178 1.443.532 1.774.355.331.745.497 1.17.497.426 0 .817-.166 1.171-.497.355-.33.532-.922.532-1.774 0-3.051-.153-5.724-.46-8.018-.285-2.318-.651-4.352-1.1-6.102-.45-1.775-.946-3.324-1.49-4.648a400.695 400.695 0 0 0-1.454-3.655 41.662 41.662 0 0 1-1.313-3.725 51.27 51.27 0 0 1-1.1-4.754 70.564 70.564 0 0 1-.744-5.96c-.19-2.224-.284-4.696-.284-7.416 0-.993.177-1.845.532-2.554a4.89 4.89 0 0 1 1.419-1.739A5.686 5.686 0 0 1 31.86 6.6a7.686 7.686 0 0 1 2.306-.355c.78 0 1.537.119 2.27.355.757.213 1.43.556 2.022 1.03a4.89 4.89 0 0 1 1.419 1.738c.354.71.532 1.56.532 2.554v14.192ZM67.764 6.812v3.406h-4.54v51.09h-4.54v-51.09h-4.541V6.812h13.62ZM93.984 29.519c0 1.135-.284 2.01-.851 2.625-.568.615-1.419 1.053-2.554 1.313 1.135.307 1.986.769 2.554 1.384.567.615.851 1.49.851 2.625v23.842h-4.54V37.466c0-.568-.071-1.005-.213-1.313a1.365 1.365 0 0 0-.638-.674c-.284-.142-.639-.224-1.065-.248a27.212 27.212 0 0 0-1.49-.035v26.112h-4.54V6.812h5.108c1.537 0 2.85.13 3.937.39 1.112.237 1.963.674 2.554 1.313.592.615.887 1.561.887 2.838V29.52Zm-4.54-17.03c0-.568-.071-1.006-.213-1.313a1.365 1.365 0 0 0-.638-.674c-.284-.142-.639-.225-1.065-.248a27.313 27.313 0 0 0-1.49-.036V31.79c.568 0 1.065-.012 1.49-.036.426-.024.78-.106 1.064-.248.284-.142.497-.367.639-.675.142-.307.213-.744.213-1.312v-17.03ZM123.042 56.2c0 .993-.189 1.856-.568 2.59a5.05 5.05 0 0 1-1.454 1.773 5.968 5.968 0 0 1-2.093 1.03 8.267 8.267 0 0 1-2.412.354c-.875 0-1.738-.13-2.589-.39a7.17 7.17 0 0 1-2.27-1.065 6.288 6.288 0 0 1-1.632-1.81c-.402-.732-.603-1.56-.603-2.483V11.921c0-.899.201-1.691.603-2.377.426-.71.97-1.301 1.632-1.774a7.62 7.62 0 0 1 2.305-1.064 8.82 8.82 0 0 1 2.59-.39c.827 0 1.631.118 2.412.354.78.213 1.466.556 2.057 1.029.615.45 1.1 1.029 1.454 1.739.379.71.568 1.537.568 2.483V56.2Zm-4.54-44.279c0-.804-.201-1.372-.603-1.703a1.906 1.906 0 0 0-1.348-.532c-.308 0-.615.059-.922.177a2.49 2.49 0 0 0-.852.462c-.236.189-.437.425-.603.71-.142.26-.213.555-.213.886V56.2c0 .331.071.639.213.923.166.284.367.52.603.71.26.188.532.342.816.46.307.095.615.142.922.142.521 0 .982-.165 1.384-.496.402-.355.603-.934.603-1.739V11.921ZM152.1 61.308h-3.405l-6.243-31.79v31.79h-3.973V6.812h3.405l6.279 32.925V6.812h3.937v54.496ZM172.645 6.812v54.496h-4.541V6.812h4.541ZM194.325 22.707l1.135-15.895H200l-3.405 28.384L200 61.308h-4.54l-1.135-13.624-.568-9.082-.567 9.082-1.136 13.624h-4.54l3.405-26.112-3.405-28.384h4.54l1.136 15.895.567 9.082.568-9.082Z"
  />
</svg>
